<?xml version="1.0" encoding="utf-8"?>
<!-- Generator: Adobe Illustrator 18.1.0, SVG Export Plug-In . SVG Version: 6.00 Build 0)  -->
<svg version="1.1" id="图层_1" xmlns="http://www.w3.org/2000/svg" x="0px" y="0px"
	 viewBox="0 0 500 500" enable-background="new 0 0 500 500" xml:space="preserve">
<g>
	<g opacity="0.4">
		<g>
			<g>
				<path fill="#659FEB" d="M325.9,272.2c15.9-40.5,47.5-74.8,87.2-92.9c19.6-9,51-13.6,62.3,10.4c9.6,20.2,3.2,45.3-12.9,60
					c-16.1,14.8-39.5,20.9-61,18.4c-1.4-0.2-1.4,2,0,2.2c20.4,2.3,42.2-3,58.5-15.7c17.5-13.6,25.4-35.5,20.3-57.2
					c-5.2-21.9-26.6-30.8-47.6-27c-24.1,4.4-47.1,20.1-64.8,36.5c-19.4,17.9-34.6,40.1-44.2,64.7C323.2,273,325.4,273.5,325.9,272.2
					L325.9,272.2z"/>
			</g>
		</g>
		<g>
			<path fill="#659FEB" d="M333.6,272.6c20.5-33.9,49-65.1,86.4-78.1c7.2-2.5,14.8-4.3,22.3-3.5c7.5,0.8,15.1,4.4,19.1,10.8
				c3.9,6.3,4,14.4,2.2,21.6c-3.2,12.7-11.9,23.5-22.4,31.4c-10.5,7.9-22.7,13.1-35,17.6"/>
			<g>
				<path fill="#659FEB" d="M334.5,273.1c16.1-26.5,36.6-51.3,63.6-67.2c13.9-8.2,33.5-17.8,49.9-12.6c20.9,6.6,17.4,30.6,7.5,45.2
					c-11.5,17.1-30.9,26-49.6,33c-1.3,0.5-0.7,2.6,0.6,2.1c17.8-6.6,35.8-14.8,48-29.9c9.2-11.4,16.8-30.5,6.9-43.8
					c-11.6-15.5-33.9-9.9-48.9-3.6c-15.7,6.6-29.8,16.5-42.2,28.1c-14.8,13.9-27.1,30.3-37.6,47.7
					C331.9,273.2,333.8,274.4,334.5,273.1L334.5,273.1z"/>
			</g>
		</g>
		<g>
			<g>
				<path fill="#659FEB" d="M299.4,333.1c2.8,14.4,9.1,28,20.4,37.7c9.5,8.1,21.3,12.7,33.5,15c13.3,2.4,28.8,3.4,41.4-2.2
					c16.3-7.2,20.3-24.2,26.3-39.3c7.5-18.8,19.6-38.8,40.1-44.8c1.4-0.4,0.8-2.5-0.6-2.1c-14.4,4.2-24.7,15-32.3,27.6
					c-4,6.6-7.4,13.7-10.2,20.9c-3,8-5.5,16.4-10.2,23.6c-10,15.3-28.5,16.9-45.1,15.4c-12.5-1.1-25.1-4.5-35.8-11.4
					c-14.3-9.4-22.3-24.4-25.5-40.9C301.3,331.1,299.1,331.7,299.4,333.1L299.4,333.1z"/>
			</g>
		</g>
		<g>
			<path fill="#659FEB" d="M310.5,273.3c0.1,0.9-0.9,1.6-1.7,1.3c-7.6-22.9-6.5-47.6-7.6-71.7c-1.2-24.1-5.3-49.6-21.2-67.8
				c-6.7-7.7-15.9-14-26.2-14.5c-10.2-0.5-21.2,6.2-22.9,16.3c-0.7,3.9,0,7.8,0.3,11.7c0.5,7.1-0.2,14.2-2.2,21
				c-0.6,2.2-1.5,4.5-3.2,6.1c-4.6,4.2-12,1.1-18,2.9c-4,1.2-7,4.8-8.9,8.5c-3.6,7.2-3.9,15.8-1.9,23.6c2,7.8,6.1,15,11.1,21.4
				c14.3,18.6,35.8,31.4,58.9,35.3"/>
			<g>
				<path fill="#659FEB" d="M309.4,273c0.2-0.8-1-3.2-1.2-4c-0.5-1.8-0.9-3.6-1.3-5.4c-1-4.7-1.8-9.5-2.4-14.3
					c-0.9-7.7-1.3-15.4-1.5-23.2c-0.5-14.4-0.5-28.7-2.5-43c-3.3-23.3-13.2-52.7-37.5-61.8c-9.8-3.7-21.4-2-28.6,6.1
					c-3.4,3.8-4.9,8.5-4.9,13.6c0.1,7.9,1.2,15.2-0.3,23.1c-0.8,4.3-1.8,9.9-6.1,11.9c-3.3,1.6-7.4,0.7-10.9,0.8
					c-4.9,0.2-8.9,2.1-11.9,6.1c-7.8,10.1-6.4,24.7-1.6,35.7c11.7,26.6,40.2,44.9,68.1,49.8c1.4,0.2,2-1.9,0.6-2.1
					c-24.5-4.3-47.3-18.3-61.3-39c-7.9-11.8-13.3-28.4-5.1-41.5c4.3-6.8,10-6.6,17.1-6.7c4.3-0.1,8.1-1.2,10.4-5.1
					c6-10.2,3-22.9,3.3-33.9c0.3-14.8,16.7-21.3,29.2-17.2c24.4,7.9,34.2,38,37.3,60.7c4.2,30.3-0.2,61.6,9.4,91.1
					c0.2,0.5,0.6,0.8,1.1,0.8c1.6,0,2.3-0.6,2.8-2.1C312,272.2,309.8,271.6,309.4,273L309.4,273z"/>
			</g>
		</g>
		<g>
			<g>
				<path fill="#659FEB" d="M222,165.7c-21.6-1.3-36.8,19.1-35.1,39.5c2,23.3,20.7,39.4,41.2,47.5c1.3,0.5,1.9-1.6,0.6-2.1
					c-18.7-7.4-35.9-21.7-39.3-42.5c-3.2-20,10.8-41.4,32.5-40.2C223.4,168,223.4,165.8,222,165.7L222,165.7z"/>
			</g>
		</g>
		<g>
			<path fill="#659FEB" d="M262.5,257.2c-13.1-3.4-35,3.9-48.5,4.3c-13.5,0.4-27.5,4.9-36.8,14.7c-4.2,4.4-7.3,11.1-4.3,16.4
				c1.1,1.9,2.9,3.4,4.8,4.5c10.4,6.1,23.5,3.6,35.2,6.1c4.9,1.1,10.2,3.7,11.5,8.5c1.7,6.1-3.8,12.6-1.8,18.6
				c1.1,3.4,4.6,5.7,8.1,6.4c3.5,0.7,7.2-0.1,10.7-1.1c8-2.4,15.7-6.4,21.5-12.4c5.8-6.1,9.5-14.3,9.3-22.7
				c-0.2-6.4,21.7-39.7,19-45.4"/>
			<g>
				<path fill="#659FEB" d="M262.8,256.2c-10.8-2.5-22.3,0.3-32.9,2.2c-11.5,2-23.6,1.6-34.7,5.4c-9.5,3.3-20.7,9.9-23.9,20.1
					c-3.7,11.8,9,16.9,18.4,18.3c11,1.6,37.6-1.5,33.3,16.6c-1,4.5-3.1,9.1-0.7,13.5c2,3.7,6.3,5.6,10.3,5.9
					c11.4,0.7,24.9-6.9,32.3-15.2c3.2-3.7,5.8-8,7.2-12.7c1.3-4.1,0.6-8.5,2-12.5c2.9-8.5,8.1-16.3,12.1-24.3
					c2.2-4.4,8.1-13.2,6.1-18.4c-0.5-1.3-2.6-0.7-2.1,0.6c1.6,4.3-3.7,12.2-5.4,15.8c-3.2,6.4-6.6,12.6-9.7,19
					c-1.1,2.2-2.2,4.5-3,6.8c-1.1,3.1-0.6,6.2-1.3,9.5c-2.3,11.9-11.7,20.7-22.4,25.5c-6,2.7-14.6,6-20.8,2.4
					c-7.3-4.2-2.5-12-1.8-18.2c1-8.7-6.5-12.9-14.1-14.3c-10.9-2-23.5,0.3-33.4-5.7c-16.2-9.9,6.3-26.1,16-29.8
					c10.7-4.1,22.1-3.6,33.2-5.5c11.2-1.9,23.4-5.3,34.7-2.7C263.6,258.6,264.2,256.5,262.8,256.2L262.8,256.2z"/>
			</g>
		</g>
		<g>
			<g>
				<path fill="#659FEB" d="M220.8,303.5c0.8,10.7-9.5,20.3-7.6,31.1c2,11.4,17.3,14.5,26.8,13.6c30.3-3.1,44.9-33.6,47.1-60.6
					c0.1-1.4-2.1-1.4-2.2,0c-2.1,25.7-15.6,54.9-44.2,58.3c-11.3,1.4-28.2-3.6-24.6-17.9c2-7.9,7.7-16,7-24.4
					C222.9,302.1,220.7,302.1,220.8,303.5L220.8,303.5z"/>
			</g>
		</g>
		<g>
			<path fill="#659FEB" d="M287.3,262.9c3.9,9.7,23.1,73.4,28.3,82.3c3.4,5.8,7.1,11.4,12.1,15.9c5.5,4.9,12.2,8.2,19,11
				c9.6,4.1,21,7.5,30,2.4c7.8-4.4,11.5-14.1,11.1-23.1c-0.3-9-12.5-82.7-16.1-91"/>
			<g>
				<path fill="#659FEB" d="M286.2,263.2c6.1,15.6,10.5,32,15.8,48c5.6,17,10.2,35.9,23.1,49c5.3,5.3,11.9,8.9,18.7,11.9
					c6.3,2.8,12.8,5.4,19.7,6c13,1.1,22.8-7.3,25-19.9c1.1-6.1,0-12.2-0.9-18.3c-1.3-9-2.7-17.9-4.2-26.9c-1.8-11-3.8-22.1-5.9-33
					c-1.3-6.5-2.1-13.7-4.6-19.8c-0.5-1.3-2.7-0.7-2.1,0.6c1.9,4.5,2.6,9.7,3.6,14.5c1.7,8.4,3.2,16.8,4.7,25.3
					c2.8,15.8,5.7,31.7,7.4,47.6c1.2,10.8-2.4,23.2-13.7,26.9c-7.6,2.5-16.3-0.1-23.5-3c-7.6-3-15.4-6.6-21.4-12.3
					c-13.1-12.3-17.6-30.6-23-47c-5.5-16.6-10.1-33.8-16.5-50.1C287.8,261.3,285.7,261.9,286.2,263.2L286.2,263.2z"/>
			</g>
		</g>
		<g>
			<path fill="#659FEB" d="M360.8,238.3c4.7-8.7,9.5-17.6,11.8-27.3c2.3-9.7,2-20.4-3.1-28.9c-1-1.7-2.3-3.4-4-4.3
				c-1.7-1-4.1-1.1-5.6,0.1c-1.3,1-1.8,2.6-2.3,4.2c-1.2,3.9-2.4,7.7-3.6,11.6c-0.2,0.8-0.5,1.6-1.1,2.2c-1.4,1.3-3.7,0.8-5.2-0.5
				c-1.4-1.2-2.4-3-3.8-4.2c-3.8-3.2-10-1.8-13.3,1.9c-3.3,3.8,5.3,67.1,5.5,72.1"/>
			<g>
				<path fill="#659FEB" d="M361.7,238.9c8.8-16.2,18.7-35.9,10.3-54.4c-2.1-4.6-8.4-12.6-13.7-6.5c-2.3,2.6-2.8,7.2-3.8,10.5
					c-0.6,2-1.4,7.1-4.4,7c-2.1-0.1-4.4-4.4-6.2-5.6c-4.1-2.8-12-1.7-14.5,3c-1.1,2.2-0.7,5.5-0.7,7.9c0.2,11.6,1.7,23.3,2.9,34.8
					c1.1,9.8,2.8,19.8,3.3,29.6c0.1,1.4,2.3,1.4,2.2,0c-0.8-16.8-4-33.6-5.4-50.4c-0.4-4.4-0.7-8.9-0.8-13.3
					c-0.1-2.1-0.6-5.6,0.4-7.6c0.9-1.6,3.6-2.8,5.3-3.1c3.6-0.8,6.1,0.8,8.4,3.3c1.6,1.7,3.2,3.8,5.9,3.7c5.3-0.2,6.1-10,7.2-13.7
					c0.2-0.7,0.5-2.3,0.9-2.8c2.7-0.3,5.3-0.5,8-0.8c0.8,0.9,1.4,1.9,2,2.9c1.3,2.3,2.2,4.8,2.9,7.4c1.4,5.4,1.3,11.2,0.4,16.7
					c-1.9,10.9-7.2,20.7-12.4,30.3C359.1,239,361.1,240.1,361.7,238.9L361.7,238.9z"/>
			</g>
		</g>
	</g>
	<g>
		<g>

				<path fill="#FFA47A" stroke="#FFA47A" stroke-width="1.0363" stroke-linecap="round"
					  stroke-linejoin="round" stroke-miterlimit="10" d="
				M164.1,190c25.1,19.9,68-11.5,68-11.5l8.8-7.6c10.7-4.7,14.2-8.5,14.2-8.5l-7,3.2l8.3-6.6c0.2-0.2-0.8,0-1,0.1l-7.8,4l8-7.1
				c0.2-0.2,0-0.4-0.2-0.3L246,161c0,0,7.5-6.9,6.3-6.8c-1.2,0.2-11.1,7.1-11.1,7.1s4.1-6.6,2.8-6.3c-0.8,0.2-3.9,4.2-6,7
				c-1.4,1.8-1,2.4-2.9,3.5L221,174c-11.9,7.3-33.1,12.9-49-0.3c0,0-6.1-3.2-11.3,3.2C155.4,183.4,164.1,190,164.1,190z"/>
			<path fill="#FF7F4D" stroke="#FF7F4D" stroke-width="0.4182" stroke-miterlimit="10" d="M200.8,180.8c-9.5,1.3-17.1-1.6-28.9-7
				c0,0-6.1-3.2-11.3,3.2c-5.2,6.4,3.5,13,3.5,13c8.4,6.7,14,9.9,24.2,8.1L200.8,180.8z"/>
			<path fill="#CF5540" d="M201.4,180.8l-5,15c0,0-3.9,0.9-6.3,0.9L201.4,180.8z"/>
			<path fill="#CF5540" d="M235.9,164.4c0.4,0.7,0.7,1.8,0.3,2.1c-0.5,0.3-1.5-0.4-1.9-1"/>
			<path fill="#CF5540" d="M242.9,159.6c0,0-1.1,3.2-1.1,3.1l4.5-5.3L242.9,159.6z"/>
		</g>
		<g>
			<g>
				<path fill="#00043B" d="M157.3,114.3c7.4,2.3,26,27.4,26,27.4c2.6,2.2,5.6,6.8,6.5,11.1c0.3,1.6-0.8,6.3-2,7.2L163,180.2
					c0,0-19.9-7.1-15.1-22.5c4.8-15.4,8.9-12.1,6.5-20.9C152.1,128,157.3,114.3,157.3,114.3z"/>
				<g>
					<g>
						<path fill="#00043B" d="M188.8,151.1c-3.3-8.8-7.6-16.1-13.5-23.4c-4.5-5.6-10-9.8-15.5-14.3c-0.4-0.4-1.1,0.3-0.6,0.6
							c4.9,4,10.1,7.9,14.2,12.7c6.4,7.6,11,15.3,14.6,24.6C188.1,151.9,189,151.6,188.8,151.1L188.8,151.1z"/>
					</g>
				</g>
			</g>
			<g>
				<path fill="#FFA47A" d="M172.5,153.9c-0.1,0.2-0.4,0.2-0.5,0c-0.6-0.7-2.1-2-3.9-0.6c-1.9,1.4,0.1,4,0.7,5.2
					c0.8,1.7,1.4,7-0.5,11.3c-1.3,3.1-6.7,8.7-6.7,8.7s7.3,8.2,12.7,4.6c0,0,0.5-11.6,2.3-13.9c0,0,4.6,2.7,9.8-5.1
					c4.9-7.3,0-11.9-1.1-12.8C184.3,150.5,179.8,146.2,172.5,153.9z"/>
				<path fill="#CF5540" d="M174.7,178.4c-0.2,0-7.5,3.6-7.5,3.6s3.4,3.5,7.2,1.1L174.7,178.4z"/>
				<path fill="#FFFFFF" d="M184.7,166l-4.1-2.3c0,0-0.1,2.6,1.2,3C183.2,167.2,184.7,166,184.7,166z"/>
				<path fill="#CF5540" d="M171.3,155c-0.5-0.6-1.6-0.8-2.2-0.3c-0.6,0.5-0.4,1.7,0.1,2.3"/>
				<path fill="#CF5540" d="M184.6,162.4l-1.4,2l1.1,0.5c0.2,0.1,0.4-0.1,0.4-0.3L184.6,162.4z"/>
				<path fill="#00043B"
					  d="M188.6,154.9c0,0-11.9,2.5-16.7-1c-4.7-3.5,7.5-12.7,12-7.2C188.6,152.1,188.6,154.9,188.6,154.9z"/>
				<path fill="#CF5540"
					  d="M176.7,169.3c0,0-2.7-1.2-4.2-4.2c-0.8-1.7-0.8,6.5,2.8,8.4C175.3,173.4,176,171.2,176.7,169.3z"/>
				<path fill="#00043B"
					  d="M183,157.8c-0.5,0.1,0.7-0.8,1.3-0.7c0.6,0.1,1,0.7,0.8,1.2C185.1,158.3,184.2,157.7,183,157.8z"/>
				<path fill="#00043B" d="M188.4,159.5c-0.5-0.4-1.1-0.4-1.5,0c0,0,0.7,0.2,1.3,0.9"/>

				<ellipse transform="matrix(-0.9007 -0.4345 0.4345 -0.9007 278.2158 386.2625)" fill="#00043B" cx="183.3"
						 cy="161.3" rx="0.4" ry="0.8"/>

				<ellipse transform="matrix(-0.9006 -0.4345 0.4345 -0.9006 282.604 389.7965)" fill="#00043B" cx="185.9"
						 cy="162.6" rx="0.4" ry="0.7"/>

				<circle opacity="0.37" fill="#E8632E" stroke="#E8632E" stroke-width="0.223" stroke-miterlimit="10"
						cx="177.8" cy="162.1" r="2.3"/>
				<g>
					<g>
						<path fill="#00043B" d="M170.2,151.3c2.6,2.9,4.7,6.1,8.9,6c3.8,0,7.7-1.4,10.6-3.8c0.4-0.3-0.2-0.8-0.5-0.5
							c-2.8,2.4-6.4,3.4-10,3.4c-4.1,0-6-2.9-8.4-5.6C170.4,150.5,169.8,151,170.2,151.3L170.2,151.3z"/>
					</g>
				</g>
			</g>
			<g>
				<path fill="#FFA47A" d="M66.1,187.8c-0.8-5.5-1.3-19.3-1.3-19.3L41,169.8c3,1.5,13.6,8.1,13.6,8.1l1.9,10.6
					C56.5,188.5,66.1,187.7,66.1,187.8z"/>
				<path fill="#659FEB" stroke="#659FEB" stroke-width="0.223" stroke-miterlimit="10" d="M54.6,177.9l-13.9-7.8
					c-0.6-0.3-0.5-1.3,0.2-1.4c5.8-0.9,21.3-3.2,25.4-3.8c0.5-0.1,0.9,0.4,0.8,0.9c-0.4,2.8-1,10.4-1.4,12.7
					c-0.1,0.4-4.6-5.3-6.2-4.4C58.2,174.9,54.7,177.9,54.6,177.9z"/>
				<path fill="none" stroke="#F8F1EE" stroke-width="0.5085" stroke-miterlimit="10" d="M53.8,177.5l2.2-2.9
					c0.5-0.7,0.4-1.7-0.3-2.2l0,0c-0.7-0.5-1.7-0.4-2.2,0.3L51,176"/>
				<path fill="#CF5540" d="M61.8,181.4c0.1,3.3,0.4,6.6,0.4,6.6l4.1-0.2l-0.5-9.3c0,0-3.4-3.8-3.9-3.8
					C61.5,174.7,61.6,178.1,61.8,181.4"/>
			</g>
			<g>
				<path fill="#FFA47A" stroke="#FFA47A" stroke-width="0.9153" stroke-miterlimit="10" d="M49.1,232.4c-3.7-3.7-7.3-14.8-7.3-14.8
					s-25.2,7.5-25,7.6c0.2,0.1,15.3,5.7,15.3,5.7l9.2,6.9C41.3,237.8,48.3,232.8,49.1,232.4z"/>
				<path fill="#659FEB" stroke="#659FEB" stroke-width="0.223" stroke-miterlimit="10" d="M31.6,231.2l-15-5.6
					c-0.7-0.2-0.7-1.2,0-1.4c5.6-1.7,20.6-6.2,24.6-7.3c0.5-0.1,1.4,0.6,1.5,1.1c0.9,3,2.7,7.8,3.5,9.4c0.2,0.3-9-1.6-10.4-0.5
					C34.6,227.9,32,231.5,31.6,231.2z"/>
				<path fill="none" stroke="#F8F1EE" stroke-width="0.5085" stroke-miterlimit="10" d="M30.4,230.6l1.5-3.7
					c0.3-0.8-0.1-1.7-0.9-2.1l0,0c-0.8-0.3-1.7,0.1-2.1,0.9l-1.5,3.8"/>
				<polygon fill="#CF5540" points="43.4,236.8 33.8,229 31.6,231.2 41.4,238.3 				"/>
			</g>
			<g>
				<g>
					<g>
						<path fill="#365185" stroke="#365185" stroke-width="0.2121" stroke-miterlimit="10" d="M142.2,214.1c3,1.2,5.2,3.7,6.3,8.9
							c1.1,5.2,6.3-3.3,6.2,2c-2,1.1-13.2,15.5-17,17.1c-17,7.1-30,10.1-46.6,6.8c-16.2-3.3-25.5-21.8-30.2-34
							c-3.7-9.6-3.7-17.5-5.4-27.4c0.5-1.1,10.1-1.4,10.6-1c6.5,20.3,15.6,31.6,27.9,33.9c11.5,2.2,19.7,0.4,28.1-2.3
							C122.1,218.1,131.5,210,142.2,214.1z"/>
					</g>
					<g opacity="0.43">
						<path fill="#365185" d="M94,220.4c11.5,2.2,19.7,0.4,28.1-2.3c0,0,9.4-8.1,20.1-4.1c3,1.2,5.2,3.7,6.3,8.9
							c1.1,5.2,6-2.7,5.9,2.5c-2,1.1-12.9,14.9-16.7,16.5"/>
					</g>
				</g>
				<g>
					<g>
						<path fill="#4465A6" stroke="#4465A6" stroke-width="0.2121" stroke-miterlimit="10" d="M153.7,223
							c-5.3-4.9-15.5-12.8-16.3-12.2c-9.2,1.1-18.1,8.3-22.2,16.1c-0.8,1.5-1.8,2.9-2.9,4.2c-5.2,5.8-11,10.8-20.7,14.5
							c-11.7,4.5-26,0.4-42.2-13.4c-1.8,1.9-8.1,4.9-7.9,6.1c6.6,7.5,10.7,13.8,19,20c10.5,7.9,28.1,18.8,43.6,13
							c14-5.2,25.5-13.7,34.7-25.7L153.7,223z"/>
					</g>
					<path opacity="0.5" fill="#4465A6" d="M136.8,247.9c0,0-46.7,45.6-94.7-10.1c0,0,11.1,19.3,34,29.9
						C77.2,267,101,287.6,136.8,247.9z"/>
				</g>
			</g>
			<g>

					<path fill="#FFA47A" stroke="#FFA47A" stroke-width="1.0363" stroke-linecap="round"
						  stroke-linejoin="round" stroke-miterlimit="10" d="
					M174.7,179.4c0.3,0.6,2.6,17.2-0.6,22.8c-2.2,3.7-14.3,14.9-19.7,21.7c0,0-11-6.8-17.2-12.8c1.7-6.5,7.5-31.5,19.4-38
					c0,0,5.3,1.2,7.4,2.1C163.9,175.1,170.4,186.1,174.7,179.4z"/>
				<polygon fill="#CF5540" points="137.6,207.4 137.1,209.4 150.5,221.1 				"/>
			</g>
			<g>
				<path fill="#F8F1EE" stroke="#F8F1EE" stroke-width="1.0363" stroke-miterlimit="10" d="M174.7,179.4c0.3,0.6,2.6,17.2-0.6,22.8
					c-2.2,3.7-14.3,14.9-19.7,21.7c0,0-3.4-2.3-18.4-19.1c1.7-6.5,8.8-25.1,20.6-31.7c0,0,5.3,1.2,7.4,2.1
					C163.9,175.1,170.4,186.1,174.7,179.4z"/>

				<path fill="#F8F1EE" stroke="#F8F1EE" stroke-width="1.0363" stroke-linecap="round"
					  stroke-linejoin="round" stroke-miterlimit="10" d="
					M154.3,223.9c0,0-3.4-2.3-18.4-19.1c1.7-6.5,8.8-25.1,20.6-31.7c0,0,5.3,1.2,7.4,2.1"/>
			</g>
		</g>
		<g>

				<path fill="none" stroke="#F8F1EE" stroke-width="0.7449" stroke-linecap="round" stroke-linejoin="round"
					  stroke-miterlimit="10" d="
				M280.2,331.1l97.9,42.2c4,1.7,8.6,0.1,10.7-3.7l62.7-117.1c2.5-4.6,2.4-9.8-2.5-11.5c0,0-21.3-19.3-58.8-30.2
				c-10.9-3.1-46.1-6.2-46.1-6.2L280.2,331.1z"/>

			<path fill="none" stroke="#F8F1EE" stroke-width="0.7449" stroke-linecap="round" stroke-linejoin="round"
				  stroke-miterlimit="10" d="
				M284.6,332.9l-92.5-54c-3.7-2.2-5.1-6.9-3.3-10.8L244.1,150c2.2-4.7,7.5-5.1,12.4-3.3c15.4,5.7,29.1,2.8,60,26.7
				c8.9,6.9,32.2,33.6,32.2,33.6L284.6,332.9z"/>
		</g>
		<g>
			<path fill="#2E4470" stroke="#2E4470" stroke-width="0.2121" stroke-miterlimit="10" d="M445.9,242.6c0,0-20.5-18.6-56.6-29
				c-10-2.9-41.5-5.7-44.2-6c-2.9-3.3-22.6-25.7-30.6-31.9c-29.7-23-42.9-20.2-57.7-25.6c-4.7-1.7-9.8-1.4-11.9,3.2l-53.1,113.5
				c-1.8,3.8-0.4,8.3,3.1,10.4l88.7,51.8l0.1,0l93.9,41c3.8,1.6,8.3,0.1,10.3-3.6l60.3-112.7C450.7,249.3,450.6,244.3,445.9,242.6z"
			/>
			<path fill="#1D2B47" stroke="#1D2B47" stroke-width="0.2121" stroke-miterlimit="10" d="M278.4,326.4l10.1,5.3l62.6-123.3
				c0,0-5.4,0-10.2-4.6L278.4,326.4z"/>
			<path fill="#CFB2A3" d="M439.1,247c0,0-42.3-30.5-95.4-36.5c-36.1-39.2-85.4-55.3-85.4-55.3l-59,114.6
				c11.8,3.2,76.2,46.9,85.8,54.6l-0.1,0.2c0.1,0,0.3,0,0.4,0.1c0.4,0.3,0.7,0.6,0.8,0.7l0.3-0.5c9.3,2,52.1,15,94.6,37.3L439.1,247
				z"/>
		</g>
		<g>
			<g>
				<path fill="#FF7F4D" stroke="#FF7F4D" stroke-width="0.4182" stroke-miterlimit="10" d="M314.2,187.3c0,0,5.7-16.7,17.4-21.5
					c0.7-0.3,1.4,0.2,1.5,0.9l0.3,3.7l4.4,0.6c0.9,0.1,1.2,1.2,0.6,1.8c-4.4,4.1-16,16.1-15.7,20.5L314.2,187.3z"/>
				<g opacity="0.76">
					<g>
						<g>
							<path fill="#F2FCF9" d="M317,187.3c0.9-2.4,1.6-4.6,3-6.8c1.4-2.2,3.1-4.3,4.9-6.2c0.7-0.8-0.5-1.9-1.1-1.1
								c-1.8,2.1-3.6,4.2-5.1,6.6c-1.4,2.3-2.2,4.7-3.2,7.2C315.1,187.8,316.6,188.3,317,187.3L317,187.3z"/>
						</g>
					</g>
					<g>
						<g>
							<path fill="#F2FCF9" d="M327.3,171.4c0.6-0.5,1.3-1.1,1.9-1.6c0.8-0.7-0.4-1.8-1.1-1.1c-0.6,0.5-1.3,1.1-1.9,1.6
								C325.3,171,326.5,172.1,327.3,171.4L327.3,171.4z"/>
						</g>
					</g>
				</g>
			</g>
			<g>
				<path fill="#F8F1EE" d="M260.4,159.4c8.1-2,8.3-0.4,16.4,1.6c8.1,2.1,13.8,4.3,21,8.5c6.6,3.9,14.7,9.3,20.2,14.7
					c8.9,8.7,16.9,16.6,25.2,25.9l-58.2,112.1c0,0-55.1-66.2-80.4-53.9L260.4,159.4z"/>
				<g>
					<path fill="#F8F1EE" d="M260.5,160.1c4.8-1.1,8.2-0.7,12.8,0.7c5.7,1.7,11.3,3.1,16.8,5.5c9.7,4.4,19.1,10.6,26.8,17.9
						c8.1,7.6,15.4,15.9,23.3,23.7c2.6,2.6,2.5,1.7,1,4.6c-8.8,16.9-17.6,33.8-26.3,50.7c-9.3,17.9-18.6,35.9-27.9,53.8
						c-0.8,1.5-1.6,3.1-2.4,4.6c-0.3,0.7,1.1,0.5,0.6-0.1c-0.5-0.7-1.1-1.3-1.6-1.9c-5.9-6.8-12.1-13.4-18.5-19.7
						c-9.9-9.7-20.5-19.3-32.5-26.4c-8.1-4.8-18.9-10-28.3-5.7c0.3,0.3,0.6,0.6,0.9,0.9c16.3-31.8,32.6-63.6,48.9-95.4
						c2.3-4.5,4.6-9,6.9-13.5c0.4-0.7-0.7-1.4-1.1-0.6c-16.3,31.8-32.6,63.6-48.9,95.4c-2.3,4.5-4.6,9-6.9,13.5
						c-0.3,0.6,0.3,1.1,0.9,0.9c8-3.7,17.4,0.4,24.6,4.3c9.6,5.3,18.2,12.3,26.2,19.7c10.2,9.2,19.9,19.2,28.8,29.8
						c0.3,0.3,0.8,0.2,1-0.1c17-32.7,34-65.4,51-98.1c2.4-4.7,4.9-9.3,7.3-14c0.1-0.3,0.1-0.5-0.1-0.8
						c-12.5-13.9-25.5-28.2-41.4-38.2c-6.9-4.4-14.1-7.8-22-10.1c-7.1-2.1-12.7-4.3-20.1-2.5C259.4,159,259.8,160.2,260.5,160.1z"/>
				</g>
			</g>
			<g>
				<g>
					<g>
						<path fill="#F8F1EE" d="M373.1,351.3c-24.8-15.9-52.9-25.6-82.1-28.6c-0.8-0.1-0.8,1.2,0,1.3c29,2.9,56.9,12.6,81.5,28.4
							C373.2,352.9,373.8,351.8,373.1,351.3L373.1,351.3z"/>
					</g>
				</g>
				<g>
					<g>
						<path fill="#F8F1EE" d="M285.9,324.5c31.7,6.4,63.1,17.5,91.2,33.5c0.7,0.4,1.3-0.7,0.6-1.1c-28.2-16.1-59.7-27.2-91.5-33.7
							C285.5,323.1,285.2,324.3,285.9,324.5L285.9,324.5z"/>
					</g>
				</g>
				<g>
					<g>
						<path fill="#F8F1EE" d="M207.9,269c13.6,2.4,26.7,11.5,37.8,19.3c11.8,8.2,22.6,17.7,32.4,28.2c0.6,0.6,1.4-0.3,0.9-0.9
							c-9.9-10.6-20.8-20.1-32.6-28.4c-11.2-7.8-24.4-17-38.1-19.4C207.5,267.6,207.1,268.9,207.9,269L207.9,269z"/>
					</g>
				</g>
				<g>
					<g>
						<path fill="#F8F1EE" d="M204.7,269.6c30,13.3,57.7,32.9,81.6,55.4c0.6,0.6,1.5-0.3,0.9-0.9c-24-22.5-51.7-42.2-81.9-55.6
							C204.6,268.2,203.9,269.3,204.7,269.6L204.7,269.6z"/>
					</g>
				</g>
				<g>
					<g>
						<path fill="#F8F1EE" d="M435.2,248.5c-14.7,27.6-29.3,55.3-44,82.9c-0.4,0.7,0.7,1.4,1.1,0.6c14.7-27.6,29.3-55.3,44-82.9
							C436.7,248.4,435.6,247.8,435.2,248.5L435.2,248.5z"/>
					</g>
				</g>
			</g>
			<g>
				<path fill="#F8F1EE" d="M433.5,246.9c-3.1-7.7-4.5-7-11-12.3c-6.4-5.3-11.6-8.7-19.2-12c-7-3.1-16.2-6.4-23.8-7.7
					c-12.2-2.1-23.3-3.5-35.6-4.7L285,322.9c0,0,89.2,8,94.1,35.7L433.5,246.9z"/>
				<g>
					<path fill="#F8F1EE" d="M434.1,246.8c-2.3-5.6-5.3-8-10-11.6c-7-5.4-13.8-10.2-22-13.7c-18.5-7.9-38.4-9.8-58.2-11.8
						c-0.2,0-0.5,0.1-0.5,0.3c-17.2,32.9-34.4,65.8-51.6,98.7c-2.4,4.6-4.9,9.3-7.3,13.9c-0.2,0.4,0.1,0.9,0.5,0.9
						c9.8,0.9,19.6,2.4,29.3,4.2c16.7,3.1,34.4,6.8,49.4,15.1c6.3,3.5,13.3,8.4,14.8,16c0.1,0.5,0.9,0.6,1.2,0.2
						c15.9-32.6,31.8-65.3,47.7-97.9c2.2-4.6,4.5-9.2,6.7-13.7c0.4-0.7-0.7-1.4-1.1-0.6c-15.9,32.6-31.8,65.3-47.7,97.9
						c-2.2,4.6-4.5,9.2-6.7,13.7c0.4,0.1,0.8,0.1,1.2,0.2c-1.7-8.7-10.3-14.2-17.6-17.9c-10.7-5.4-22.5-8.6-34.1-11.3
						c-10.6-2.4-21.4-4.3-32.2-5.7c-3-0.4-6.2-1.2-9.2-1.1c-0.5,0-1-0.1-1.5-0.1c1.4,0.2-0.2,1.3,0.9,0.2c1.3-1.3,2.2-4.2,3-5.8
						c1.8-3.5,3.7-7,5.5-10.6c5.4-10.3,10.7-20.6,16.1-30.8c10.1-19.3,20.2-38.6,30.3-57.9c0.9-1.7,1.9-5,3.3-6.3
						c1-0.9,7.5,0.7,9.2,0.9c7.1,0.8,14.1,1.8,21.2,2.9c12.4,2,24.8,5.8,35.8,12.1c5,2.9,9.4,6.6,14,10.1c4,3.1,6.5,5.4,8.5,10.2
						C433.2,247.9,434.4,247.5,434.1,246.8z"/>
				</g>
			</g>
			<g>
				<g>
					<path opacity="0.42" fill="#E0CFC8" d="M342.6,210.4c0,0-34.9,57.5-54.7,65.4c-27.3,11-62.3-6.2-62.3-6.2s53.5,34.5,59.4,52.6
						L342.6,210.4z"/>
					<path opacity="0.42" fill="#E0CFC8" d="M347.8,209.4c0,0-24.8,62.5-19.2,83.1c7.7,28.4,42.6,46,42.6,46s-59.8-21.8-77.8-15.6
						L347.8,209.4z"/>
				</g>
				<g opacity="0.46">
					<g>
						<g>
							<path fill="#659FEB" d="M263.6,172.1c0,0,0.9-0.1,2.2,0c0.7,0.1,1.4,0.2,2.2,0.4c0.4,0.1,0.8,0.2,1.2,0.3
								c0.4,0.1,0.8,0.3,1.2,0.4c0.4,0.2,0.8,0.3,1.2,0.5c0.4,0.1,0.8,0.4,1.1,0.5c0.7,0.4,1.4,0.7,1.9,1.1c1.1,0.7,1.7,1.4,1.7,1.4
								l-0.1,0.1c0,0-0.8-0.3-2-0.7c-1.2-0.4-2.8-1-4.4-1.6c-1.6-0.6-3.2-1.2-4.4-1.6c-1.2-0.5-2-0.8-2-0.8L263.6,172.1z"/>
						</g>
						<g>
							<path fill="#659FEB" d="M283.2,180.9c0,0,0.9,0.3,2.4,0.9c0.8,0.3,1.7,0.7,2.7,1.2c0.5,0.2,1.1,0.5,1.7,0.7
								c0.6,0.3,1.2,0.6,1.8,0.9c1.2,0.6,2.6,1.4,4,2.2c1.4,0.8,2.9,1.6,4.3,2.6c1.5,1,3,1.9,4.5,3c1.5,1.1,3,2.2,4.5,3.3
								c1.4,1.2,2.9,2.4,4.3,3.6c1.4,1.2,2.7,2.5,4,3.7c1.3,1.2,2.4,2.4,3.5,3.6c1.1,1.2,2.1,2.3,3,3.4c0.5,0.5,0.9,1,1.3,1.5
								c0.4,0.5,0.8,1,1.1,1.4c0.7,0.9,1.3,1.7,1.8,2.4c0.5,0.7,0.8,1.2,1.1,1.6c0.2,0.4,0.4,0.6,0.4,0.6l-0.1,0.1
								c0,0-0.6-0.7-1.7-1.9c-0.5-0.6-1.2-1.4-1.9-2.2c-0.8-0.8-1.6-1.8-2.6-2.8c-0.9-1-2-2.1-3.1-3.2c-1.1-1.1-2.4-2.3-3.6-3.5
								c-1.3-1.2-2.6-2.4-4-3.5c-1.4-1.2-2.8-2.3-4.3-3.5c-1.5-1.1-2.9-2.3-4.4-3.4c-1.5-1.1-2.9-2.1-4.4-3.1
								c-1.5-1-2.8-1.9-4.2-2.7c-1.4-0.8-2.6-1.6-3.8-2.3c-1.2-0.7-2.3-1.3-3.3-1.9c-1-0.5-1.9-1-2.6-1.4c-1.4-0.7-2.3-1.2-2.3-1.2
								L283.2,180.9z"/>
						</g>
						<g>
							<path fill="#659FEB" d="M255.6,186.1c0,0,0.8,0,2.1,0c0.7,0,1.5,0.1,2.4,0.2c0.5,0,1,0.1,1.5,0.1c0.5,0.1,1.1,0.2,1.6,0.3
								c1.1,0.2,2.3,0.4,3.6,0.7c1.3,0.3,2.6,0.6,4,1.1c1.4,0.5,2.8,0.9,4.2,1.5c1.4,0.5,2.8,1.2,4.2,1.9c1.3,0.7,2.7,1.4,4,2.2
								c1.3,0.7,2.5,1.6,3.7,2.4c1.2,0.9,2.3,1.7,3.2,2.6c1,0.9,1.9,1.7,2.7,2.5c0.4,0.4,0.8,0.8,1.2,1.1c0.3,0.4,0.7,0.8,1,1.1
								c0.6,0.7,1.2,1.3,1.6,1.8c0.4,0.5,0.7,0.9,0.9,1.2c0.2,0.3,0.3,0.4,0.3,0.4l-0.1,0.1c0,0-0.5-0.5-1.5-1.5
								c-0.5-0.5-1-1-1.7-1.6c-0.7-0.6-1.4-1.3-2.3-2c-0.8-0.7-1.8-1.5-2.8-2.3c-1-0.8-2.2-1.6-3.3-2.4c-1.2-0.8-2.4-1.6-3.7-2.3
								c-1.3-0.8-2.6-1.4-3.9-2.1c-1.4-0.6-2.7-1.3-4.1-1.9c-1.3-0.6-2.7-1.1-4-1.6c-1.3-0.4-2.6-0.9-3.9-1.2
								c-1.2-0.4-2.4-0.7-3.5-0.9c-1.1-0.3-2.1-0.5-3-0.6c-0.9-0.2-1.7-0.3-2.3-0.4c-1.3-0.2-2-0.3-2-0.3L255.6,186.1z"/>
						</g>
						<g>
							<path fill="#659FEB" d="M305.3,215.6c0,0,1.3,0.5,2.9,1.4c0.8,0.5,1.8,1.1,2.8,1.7c0.5,0.3,1,0.7,1.5,1.1
								c0.5,0.4,1,0.8,1.5,1.2c0.5,0.4,1,0.8,1.4,1.2c0.5,0.4,0.9,0.8,1.4,1.2c0.9,0.8,1.6,1.6,2.3,2.4c1.3,1.4,2,2.6,2,2.6
								l-0.1,0.1c0,0-4-3.2-7.9-6.3c-3.9-3.2-7.8-6.5-7.8-6.5L305.3,215.6z"/>
						</g>
						<g>
							<path fill="#659FEB" d="M244.7,216.3c0,0,1.3,0.3,3.4,0.9c1.1,0.3,2.4,0.7,3.9,1.2c1.5,0.5,3.2,1.1,5,1.8
								c0.9,0.4,1.8,0.7,2.8,1.1c1,0.4,2,0.8,3,1.3c2,0.9,4.2,1.9,6.3,3c1.1,0.6,2.2,1.1,3.3,1.8c1.1,0.6,2.2,1.2,3.3,1.9
								c2.2,1.3,4.4,2.7,6.6,4.1c2.1,1.5,4.2,3,6.3,4.6c1,0.8,2,1.6,3,2.3c1,0.8,1.9,1.6,2.9,2.4c0.9,0.8,1.8,1.6,2.7,2.4
								c0.9,0.8,1.7,1.6,2.5,2.4c1.6,1.5,3.1,3.1,4.4,4.5c1.4,1.4,2.5,2.7,3.6,3.9c1,1.2,1.9,2.2,2.7,3.1c0.7,0.8,1.3,1.5,1.7,2
								c0.4,0.5,0.6,0.7,0.6,0.7l-0.1,0.1c0,0-0.9-0.9-2.5-2.5c-1.6-1.6-3.8-3.9-6.6-6.6c-1.4-1.3-2.9-2.8-4.5-4.3
								c-1.6-1.5-3.4-3-5.3-4.6c-0.9-0.8-1.9-1.5-2.9-2.3c-1-0.8-2-1.5-3-2.3c-2-1.5-4.1-3-6.3-4.4c-2.1-1.4-4.3-2.8-6.5-4.1
								c-1.1-0.7-2.2-1.3-3.2-1.9c-1.1-0.6-2.1-1.2-3.2-1.8c-1.1-0.6-2.1-1.1-3.1-1.7c-1-0.5-2-1.1-3-1.5c-1-0.5-2-0.9-2.9-1.4
								c-1-0.4-1.9-0.8-2.8-1.2c-3.5-1.5-6.6-2.7-8.7-3.4c-2.1-0.7-3.3-1.2-3.3-1.2L244.7,216.3z"/>
						</g>
						<g>
							<path fill="#659FEB" d="M240,228.9c0,0,1.6,0.1,3.8,0.7c1.1,0.3,2.4,0.7,3.7,1.2c0.7,0.3,1.4,0.5,2,0.8
								c0.7,0.3,1.4,0.6,2.1,1c0.7,0.4,1.3,0.7,2,1.1c0.7,0.4,1.3,0.8,1.9,1.1c1.2,0.8,2.3,1.6,3.2,2.3c1.8,1.4,2.8,2.6,2.8,2.6
								l-0.1,0.1c0,0-1.3-0.8-3.2-2c-1.9-1.2-4.6-2.6-7.2-4c-2.7-1.4-5.4-2.6-7.5-3.5c-2.1-0.9-3.5-1.4-3.5-1.4L240,228.9z"/>
						</g>
						<g>
							<path fill="#659FEB" d="M270.6,247.5c0,0,0.5,0.3,1.5,0.9c0.9,0.6,2.2,1.4,3.8,2.4c1.5,1,3.3,2.2,5.2,3.6
								c0.9,0.7,1.9,1.4,2.8,2.1c1,0.7,1.9,1.5,2.9,2.2c0.9,0.8,1.9,1.5,2.8,2.3c0.9,0.8,1.8,1.5,2.7,2.3c1.7,1.5,3.3,2.9,4.7,4.2
								c1.3,1.3,2.4,2.4,3.2,3.1c0.4,0.4,0.7,0.7,0.9,0.9c0.2,0.2,0.3,0.3,0.3,0.3l-0.1,0.1c0,0-7.7-6.1-15.4-12.1
								c-7.6-6.1-15.3-12.3-15.3-12.3L270.6,247.5z"/>
						</g>
						<g>
							<path fill="#659FEB" d="M249,265.4c0,0,0.3,0,0.7-0.1c0.4,0,1.2,0,1.9,0.2c0.4,0.1,0.8,0.2,1.2,0.3c0.4,0.1,0.9,0.3,1.3,0.5
								c0.4,0.2,0.9,0.4,1.4,0.6c0.5,0.2,0.9,0.5,1.3,0.8c0.4,0.3,0.8,0.6,1.3,0.9c0.4,0.3,0.8,0.7,1.1,1c0.4,0.3,0.7,0.7,1,1
								c0.3,0.3,0.6,0.6,0.8,1c1,1.2,1.4,2.2,1.4,2.2l-0.1,0.1c0,0-0.7-0.7-1.9-1.6c-1.2-1-2.8-2.2-4.4-3.2
								c-1.7-1.1-3.4-2.1-4.8-2.6c-0.7-0.3-1.3-0.5-1.7-0.6c-0.4-0.1-0.7-0.2-0.7-0.2L249,265.4z"/>
						</g>
						<g>
							<path fill="#659FEB" d="M267.2,278.4c0,0,1.4,0.8,3.3,2.2c0.9,0.7,2,1.5,3.1,2.5c0.5,0.5,1.1,0.9,1.7,1.5
								c0.6,0.5,1.1,1,1.7,1.6c0.5,0.5,1.1,1.1,1.6,1.6c0.5,0.5,1,1.1,1.5,1.6c1,1.1,1.9,2.1,2.6,3c1.5,1.8,2.3,3.2,2.3,3.2
								l-0.1,0.1c0,0-4.5-4.3-8.9-8.5c-4.4-4.3-8.8-8.6-8.8-8.6L267.2,278.4z"/>
						</g>
					</g>
					<g>
						<g>
							<path fill="#659FEB" d="M351,225.7c0,0,1-0.3,2.5-0.3c0.8,0,1.6,0,2.6,0.1c0.5,0.1,0.9,0.1,1.4,0.2c0.5,0.1,1,0.2,1.5,0.3
								c0.5,0.1,1,0.3,1.4,0.4c0.5,0.1,0.9,0.3,1.4,0.5c0.9,0.3,1.7,0.7,2.3,1.1c1.3,0.7,2.1,1.4,2.1,1.4l0,0.1c0,0-3.7-1.3-7.5-2.1
								c-3.8-1-7.7-1.5-7.7-1.5L351,225.7z"/>
						</g>
						<g>
							<path fill="#659FEB" d="M375.5,232.2c0,0,0.7,0.1,2,0.3c0.6,0.1,1.4,0.2,2.3,0.4c0.5,0.1,0.9,0.2,1.4,0.3
								c0.5,0.1,1,0.3,1.6,0.4c1.1,0.3,2.3,0.6,3.5,1c1.2,0.3,2.5,0.8,3.9,1.3c1.3,0.5,2.7,1,4,1.6c1.4,0.6,2.7,1.2,4.1,1.9
								c1.3,0.7,2.7,1.4,3.9,2.1c1.3,0.7,2.5,1.5,3.7,2.3c1.2,0.8,2.3,1.5,3.3,2.3c1,0.8,2,1.5,2.9,2.2c0.9,0.7,1.7,1.4,2.3,2
								c0.7,0.6,1.3,1.1,1.7,1.6c0.5,0.4,0.8,0.8,1.1,1.1c0.2,0.3,0.4,0.4,0.4,0.4l-0.1,0.1c0,0-0.6-0.5-1.6-1.3
								c-0.5-0.4-1.1-0.9-1.9-1.4c-0.7-0.5-1.5-1.1-2.5-1.8c-0.9-0.6-1.9-1.3-3-2c-1.1-0.7-2.2-1.4-3.4-2.1
								c-1.2-0.7-2.4-1.4-3.7-2.1c-1.3-0.7-2.6-1.4-3.9-2.1c-1.3-0.6-2.7-1.3-4-1.9c-1.3-0.6-2.7-1.2-3.9-1.7
								c-1.3-0.5-2.5-1-3.7-1.4c-1.2-0.4-2.3-0.8-3.4-1.2c-1.1-0.4-2-0.6-2.9-0.9c-0.9-0.3-1.6-0.5-2.3-0.6c-1.3-0.3-2-0.5-2-0.5
								L375.5,232.2z"/>
						</g>
						<g>
							<path fill="#659FEB" d="M344.4,240.9c0,0,0.5-0.1,1.4-0.1c0.4,0,1,0,1.6-0.1c0.6,0,1.3,0,2.1,0c1.5,0,3.3,0.2,5.1,0.6
								c0.9,0.2,1.9,0.3,2.9,0.6c1,0.2,1.9,0.5,2.9,0.8c1,0.3,1.9,0.7,2.8,1c0.9,0.3,1.8,0.8,2.7,1.2c1.7,0.8,3.2,1.7,4.5,2.5
								c0.6,0.4,1.2,0.8,1.7,1.2c0.5,0.4,0.9,0.7,1.3,1c0.3,0.3,0.6,0.5,0.8,0.7c0.2,0.2,0.3,0.2,0.3,0.2l-0.1,0.1
								c0,0-0.4-0.3-1.2-0.7c-0.7-0.4-1.8-1.1-3.2-1.7c-0.7-0.3-1.4-0.7-2.2-1.1c-0.8-0.4-1.6-0.7-2.4-1.1c-1.7-0.7-3.6-1.4-5.5-2
								c-1.9-0.6-3.8-1.1-5.6-1.6c-0.9-0.2-1.8-0.4-2.6-0.6c-0.8-0.2-1.6-0.3-2.4-0.4c-1.5-0.2-2.7-0.4-3.6-0.4
								c-0.9-0.1-1.4-0.1-1.4-0.1L344.4,240.9z"/>
						</g>
						<g>
							<path fill="#659FEB" d="M384.9,254.7c0,0,0.5,0.1,1.4,0.4c0.9,0.3,2.1,0.6,3.6,1.1c1.5,0.5,3.1,1.2,4.9,2
								c0.9,0.4,1.8,0.8,2.7,1.3c0.9,0.5,1.8,0.9,2.7,1.4c0.9,0.5,1.8,1,2.7,1.5c0.9,0.5,1.7,1.1,2.5,1.6c1.6,1,3.1,2.1,4.3,3
								c1.2,0.9,2.2,1.8,2.9,2.4c0.3,0.3,0.6,0.5,0.8,0.7c0.2,0.2,0.3,0.3,0.3,0.3l-0.1,0.1c0,0-1.7-1.1-4.3-2.7
								c-2.6-1.6-6.2-3.6-9.8-5.5c-3.6-2-7.2-3.8-10-5.1c-2.8-1.3-4.6-2.2-4.6-2.2L384.9,254.7z"/>
						</g>
						<g>
							<path fill="#659FEB" d="M335,258.7c0,0,1.1-0.1,2.6,0.1c0.8,0.1,1.6,0.2,2.5,0.5c0.4,0.1,0.9,0.2,1.4,0.4
								c0.5,0.1,0.9,0.3,1.4,0.4c0.5,0.2,0.9,0.4,1.4,0.5c0.5,0.2,0.9,0.4,1.3,0.6c0.8,0.4,1.6,0.8,2.3,1.2c1.3,0.8,2.1,1.5,2.1,1.5
								l0,0.1c0,0-3.7-1.3-7.5-2.5c-3.7-1.3-7.4-2.7-7.4-2.7L335,258.7z"/>
						</g>
						<g>
							<path fill="#659FEB" d="M355.4,266.6c0,0,0.1,0,0.4-0.1c0.2,0,0.5,0,0.9,0c0.3,0,0.7,0.1,1.1,0.2c0.2,0.1,0.4,0.1,0.6,0.2
								c0.2,0.1,0.4,0.1,0.6,0.2c0.2,0.1,0.4,0.2,0.5,0.3c0.2,0.1,0.3,0.2,0.5,0.3c0.3,0.2,0.6,0.4,0.9,0.7c0.5,0.5,0.8,1,0.8,1
								l0,0.1c0,0-0.4-0.1-1.1-0.2c-0.6-0.2-1.5-0.4-2.3-0.8c-0.8-0.4-1.6-0.8-2.1-1.1c-0.6-0.3-0.9-0.6-0.9-0.6L355.4,266.6z"/>
						</g>
						<g>
							<path fill="#659FEB" d="M321.2,283.7c0,0,1.2,0.1,3.2,0.4c1,0.1,2.2,0.3,3.6,0.6c0.7,0.1,1.4,0.3,2.2,0.4
								c0.8,0.2,1.6,0.4,2.4,0.5c1.7,0.4,3.5,0.8,5.5,1.4c1.9,0.5,4,1.1,6.1,1.8c2.1,0.7,4.2,1.5,6.3,2.3c2.2,0.8,4.3,1.7,6.5,2.7
								c2.1,1,4.2,2,6.2,3.1c2.1,1,4,2.2,5.9,3.2c1.9,1.1,3.7,2.2,5.3,3.4c1.7,1.1,3.2,2.2,4.6,3.2c0.7,0.5,1.4,1,2,1.5
								c0.6,0.5,1.2,1,1.8,1.4c1.1,0.9,2.1,1.7,2.8,2.3c0.8,0.7,1.4,1.2,1.8,1.6c0.4,0.4,0.6,0.6,0.6,0.6l-0.1,0.1
								c0,0-0.9-0.7-2.5-1.9c-0.8-0.6-1.8-1.3-3-2.1c-1.1-0.8-2.5-1.7-3.9-2.7c-1.4-1-3-2-4.7-3c-1.7-1.1-3.5-2.1-5.4-3.2
								c-1.9-1-3.9-2.1-5.9-3.1c-2-1.1-4.1-2-6.2-3c-2.1-0.9-4.2-1.9-6.4-2.7c-2.1-0.9-4.2-1.6-6.3-2.4c-2.1-0.7-4-1.4-5.9-2
								c-1.9-0.6-3.7-1.1-5.4-1.6c-1.7-0.5-3.2-0.9-4.6-1.2c-1.4-0.3-2.6-0.6-3.6-0.8c-2-0.4-3.1-0.7-3.1-0.7L321.2,283.7z"/>
						</g>
						<g>
							<path fill="#659FEB" d="M339.7,302.9c0,0,0.3-0.1,0.7-0.3c0.2-0.1,0.6-0.1,0.9-0.2c0.4-0.1,0.8-0.1,1.2-0.1
								c0.5,0,0.9,0.1,1.4,0.1c0.5,0.1,1,0.2,1.5,0.4c0.5,0.2,1.1,0.3,1.6,0.6c0.5,0.2,1,0.5,1.5,0.7c0.5,0.3,1,0.6,1.5,0.9
								c0.5,0.3,0.9,0.6,1.3,0.9c0.4,0.3,0.8,0.6,1.2,0.9c0.4,0.3,0.7,0.6,1,0.9c1.2,1.2,1.9,2.1,1.9,2.1l-0.1,0.1
								c0,0-0.9-0.6-2.3-1.5c-1.4-0.9-3.2-2.1-5.2-3.1c-1-0.5-1.9-1-2.9-1.4c-0.9-0.4-1.9-0.7-2.7-0.8c-0.4-0.1-0.8-0.2-1.1-0.2
								c-0.3,0-0.6-0.1-0.9-0.1c-0.5,0-0.8,0-0.8,0L339.7,302.9z"/>
						</g>
						<g>
							<path fill="#659FEB" d="M362.5,313.3c0,0,1.5,0.3,3.5,1.1c1,0.4,2.2,0.9,3.4,1.4c0.6,0.3,1.2,0.6,1.9,0.9
								c0.6,0.3,1.3,0.7,1.9,1c0.6,0.4,1.2,0.7,1.8,1.1c0.6,0.3,1.2,0.7,1.7,1.1c1.1,0.7,2.1,1.4,3,2.1c1.7,1.3,2.8,2.4,2.8,2.4
								l-0.1,0.1c0,0-5-2.7-10-5.5c-5-2.8-9.9-5.6-9.9-5.6L362.5,313.3z"/>
						</g>
					</g>
				</g>
			</g>
		</g>
		<g>

				<path fill="#FFA47A" stroke="#FFA47A" stroke-width="1.0363" stroke-linecap="round"
					  stroke-linejoin="round" stroke-miterlimit="10" d="
				M150.9,181.6c-2.3,31.9,47.8,49.7,47.8,49.7l11.3,3c10,6.2,15,7,15,7l-6.6-3.9l10.1,3.2c0.3,0.1-0.4-0.6-0.6-0.8l-7.7-4.1
				l10.4,2.6c0.2,0.1,0.4-0.3,0.1-0.4l-9.7-4.9c0,0,10,2.3,9.1,1.4c-0.8-0.9-10.6-4.8-10.6-4.8s3.2-4.8,2.9-5.2
				c-0.5-0.7-3.9,1.3-7.4,1.9c-2.2,0.3-18.9-6.7-18.9-6.7c-12.8-5.7-29.3-20.1-27.4-40.6c0,0-0.8-6.8-9-7.5
				C151.4,170.7,150.9,181.6,150.9,181.6z"/>
			<path fill="#FF7F4D" stroke="#FF7F4D" stroke-width="0.4182" stroke-miterlimit="10" d="M179.2,206.7c-6.4-7.2-8.3-15-10.5-27.8
				c0,0-0.8-6.8-9-7.5c-8.3-0.7-8.7,10.2-8.7,10.2c-0.8,10.7-0.3,17.2,6.9,24.6L179.2,206.7z"/>
			<path fill="#CF5540" d="M179.9,207.2L164,211c0,0-2.6-2.2-4-4.2L179.9,207.2z"/>
		</g>
	</g>
	<g>
		<g>

				<path fill="none" stroke="#FF7F4D" stroke-width="1.4897" stroke-linecap="round" stroke-linejoin="round"
					  stroke-miterlimit="10" stroke-dasharray="6.3861" d="
				M266.6,313.9c-6.4,17.9-18.8,29.3-36.6,28c-14.3-1-27.5-7.5-40.3-13.9c-4.4-2.2-8.9-4.4-12.2-8.1c-4.9-5.3-6.4-12.8-7.8-19.9
				c-1.4-7.1-2.7-14.1-4.1-21.2c-1-5.4-2.2-10.9-5.3-15.4c-3.2-4.5-8.9-7.6-14.2-5.9c-5.2,1.7-7.9,9.4-3.8,13
				c8.7-5.2,8.1-18,5.2-27.6c-4.9-16.2-13.4-31.2-24.6-43.9c-7.7-8.7-17.6-16.6-29.2-17.1c-15-0.7-27.6,11.1-36.2,23.3
				c-8.9,12.7-15.8,27.4-16.8,42.9c-0.5,7.8,1,16.6,7.3,21.3c6.2,4.7,17.7,1.5,18-6.3"/>

			<path fill="none" stroke="#F8F1EE" stroke-width="1.4897" stroke-linecap="round" stroke-linejoin="round"
				  stroke-miterlimit="10" stroke-dasharray="5.15" d="
				M417.6,250.9c4.2,1.7,9.2,0.8,13-1.6c3.9-2.4,6.8-6,9.3-9.9c3.4-5.4,6.1-11.8,4.8-18c-0.7-3.3-2.5-6.2-4.4-8.9
				c-2.4-3.4-5.2-6.6-8.7-9c-6.8-4.7-16.1-5.4-23.6-2c-7.5,3.5-12.9,11.1-13.8,19.3"/>
		</g>
		<g>
			<circle fill="#659FEB" cx="471.9" cy="294" r="3"/>
			<circle fill="none" stroke="#659FEB" stroke-width="0.7449" stroke-miterlimit="10" cx="441.2" cy="283.2"
					r="4"/>
			<circle fill="#FF7F4D" cx="305.3" cy="155.4" r="3.7"/>
			<circle fill="none" stroke="#FF7F4D" stroke-width="0.7449" stroke-miterlimit="10" cx="281" cy="341.1"
					r="4"/>

			<circle fill="#659FEB" stroke="#659FEB" stroke-width="0.7449" stroke-linecap="round" stroke-linejoin="round"
					stroke-miterlimit="10" stroke-dasharray="6.3861" cx="180.1" cy="249.7" r="4.7"/>
		</g>
		<circle fill="#FF7F4D" cx="97.9" cy="307.2" r="3.1"/>
		<circle fill="none" stroke="#659FEB" stroke-width="0.6658" stroke-miterlimit="10" cx="28.4" cy="279.3" r="3.6"/>
	</g>
</g>
</svg>
